<?xml version="1.0" standalone="no"?>
<!DOCTYPE svg PUBLIC "-//W3C//DTD SVG 20010904//EN"
 "http://www.w3.org/TR/2001/REC-SVG-20010904/DTD/svg10.dtd">
<svg version="1.0" xmlns="http://www.w3.org/2000/svg"
 width="232.000000pt" height="217.000000pt" viewBox="0 0 232.000000 217.000000"
 preserveAspectRatio="xMidYMid meet">

<g transform="translate(0.000000,217.000000) scale(0.100000,-0.100000)"
fill="#000000" stroke="none">
<path d="M1110 2151 c11 -8 -2 -9 -48 -6 -47 4 -62 3 -56 -6 5 -9 -4 -10 -32
-5 -22 4 -34 3 -27 -2 8 -5 -16 -13 -65 -22 -42 -7 -80 -13 -84 -12 -5 1 -8
-2 -8 -7 0 -8 -53 -25 -77 -24 -7 0 -10 -4 -6 -10 4 -6 0 -8 -11 -4 -10 4 -15
3 -11 -3 3 -6 -2 -11 -12 -12 -10 0 -24 -2 -30 -2 -7 -1 -21 -8 -31 -17 -21
-18 -53 -33 -65 -30 -5 1 -5 -4 -1 -10 5 -9 2 -10 -9 -6 -10 4 -16 2 -14 -6 1
-6 -8 -13 -20 -15 -12 -2 -33 -14 -47 -27 -13 -12 -29 -25 -34 -26 -24 -9
-131 -113 -125 -122 3 -6 1 -7 -5 -4 -13 9 -74 -72 -65 -86 3 -6 1 -7 -4 -4
-13 8 -82 -96 -116 -173 -128 -290 -125 -593 10 -868 154 -315 452 -536 818
-608 129 -25 339 -23 470 4 241 52 453 168 614 338 382 402 385 1005 7 1411
-165 178 -423 316 -658 352 -104 16 -275 24 -258 12z m92 -33 c-4 -4 -52 -10
-107 -14 -107 -7 -226 -31 -323 -64 -71 -25 -204 -92 -249 -126 -17 -13 -36
-24 -42 -24 -6 0 -10 -5 -9 -12 2 -7 -4 -12 -12 -13 -8 0 -24 -9 -35 -20 -11
-11 -31 -29 -45 -40 -14 -11 -37 -35 -52 -53 -17 -20 -28 -28 -28 -18 0 8 10
22 22 30 12 9 19 16 14 16 -5 0 2 9 15 21 13 11 42 37 64 57 22 20 42 37 45
37 4 0 14 7 23 15 30 27 39 33 122 80 18 10 36 16 39 13 3 -4 6 -2 6 4 0 9 46
33 75 40 6 1 43 13 83 27 85 30 192 49 218 39 10 -3 15 -2 12 3 -4 5 31 9 82
9 49 0 86 -3 82 -7z m78 -10 c0 -4 -7 -8 -15 -8 -8 0 -15 4 -15 8 0 5 7 9 15
9 8 0 15 -4 15 -9z m57 -4 c-3 -3 -12 -4 -19 -1 -8 3 -5 6 6 6 11 1 17 -2 13
-5z m-50 -45 c335 -37 648 -235 807 -512 41 -72 25 -67 -20 5 -21 35 -50 76
-64 93 -54 64 -136 147 -152 156 -9 5 17 -25 57 -67 133 -135 215 -283 256
-461 27 -118 23 -305 -9 -426 -84 -310 -338 -567 -671 -676 -117 -38 -230 -52
-404 -49 -89 1 -153 4 -142 7 21 4 -107 42 -157 46 -48 4 -49 5 -43 15 3 6 4
10 1 10 -2 0 -12 3 -22 7 -12 4 -15 3 -10 -5 6 -9 1 -9 -18 -1 -14 7 -23 15
-21 19 3 5 -2 11 -11 14 -10 4 -13 2 -8 -7 4 -6 -5 1 -20 16 -16 17 -33 27
-42 23 -8 -3 -13 -2 -9 3 3 5 -14 18 -37 30 -24 11 -49 30 -56 41 -7 11 -17
18 -23 14 -14 -8 -110 86 -102 99 3 6 1 7 -5 3 -13 -8 -76 70 -67 84 4 6 1 9
-7 8 -7 -2 -12 5 -12 14 1 10 -3 16 -8 15 -18 -3 -87 133 -121 238 -31 98 -32
104 -32 275 1 165 3 180 29 260 57 171 138 300 260 417 94 91 165 140 279 193
196 92 388 123 604 99z m-1017 -373 c0 -3 -4 -8 -10 -11 -5 -3 -10 -1 -10 4 0
6 5 11 10 11 6 0 10 -2 10 -4z m-20 -30 c0 -2 -7 -9 -15 -16 -13 -11 -14 -10
-9 4 5 14 24 23 24 12z m1900 -228 c0 -9 5 -20 10 -23 6 -3 10 -14 9 -23 0 -9
-11 6 -24 33 -27 58 -31 77 -10 49 8 -10 15 -27 15 -36z m54 -198 l6 -55 -14
60 c-7 33 -17 76 -20 95 l-7 35 15 -40 c8 -21 17 -64 20 -95z m13 -202 c-3 -8
-6 -5 -6 6 -1 11 2 17 5 13 3 -3 4 -12 1 -19z m-1592 -786 c-3 -3 -11 0 -18 7
-9 10 -8 11 6 5 10 -3 15 -9 12 -12z m1100 8 c-3 -5 -12 -10 -18 -10 -7 0 -6
4 3 10 19 12 23 12 15 0z m-49 -25 c-23 -18 -158 -71 -201 -80 -17 -3 11 9 60
28 50 18 104 41 120 50 37 20 46 21 21 2z m-763 -92 c-7 -2 -19 -2 -25 0 -7 3
-2 5 12 5 14 0 19 -2 13 -5z m526 3 c-14 -14 -191 -36 -280 -34 l-104 1 135 8
c74 4 153 12 175 17 44 11 81 14 74 8z m-422 -22 c-3 -3 -12 -4 -19 -1 -8 3
-5 6 6 6 11 1 17 -2 13 -5z"/>
<path d="M1000 1980 c-25 -4 34 -5 130 -3 117 3 170 1 161 -6 -11 -7 -2 -8 30
-5 34 4 41 3 29 -6 -12 -9 -9 -10 15 -9 17 1 41 1 55 0 23 -2 24 -3 5 -11 -16
-7 -12 -9 18 -7 21 0 41 -3 45 -9 13 -18 110 -57 123 -49 8 5 10 4 5 -3 -4 -7
7 -18 28 -29 20 -9 36 -21 36 -26 0 -5 12 -7 28 -3 15 3 21 3 15 0 -18 -8 -16
-24 2 -24 8 0 15 -4 15 -9 0 -5 9 -11 21 -14 13 -4 18 -10 13 -18 -4 -7 -3
-10 4 -5 6 3 20 -6 31 -21 12 -14 32 -32 44 -38 12 -6 21 -19 21 -28 -1 -9 2
-15 6 -12 11 7 52 -50 43 -59 -3 -3 -1 -6 6 -6 7 0 9 -5 6 -10 -4 -6 -1 -9 6
-8 7 2 19 -10 28 -27 9 -16 22 -36 29 -43 10 -11 10 -17 0 -29 -9 -12 -9 -16
3 -24 8 -5 17 -9 21 -9 4 0 5 -7 2 -15 -4 -9 0 -15 10 -15 14 0 21 -12 17 -33
-1 -4 8 -34 19 -67 11 -32 17 -67 13 -76 -5 -12 -3 -15 6 -9 10 6 11 3 2 -13
-6 -11 -11 -27 -10 -34 0 -7 5 -4 10 7 7 16 8 14 4 -10 -4 -16 -8 -43 -10 -60
l-4 -30 9 30 c6 22 8 10 5 -45 -6 -121 -11 -154 -29 -187 -9 -18 -16 -39 -16
-48 0 -8 -4 -15 -9 -15 -5 0 -7 -10 -5 -22 4 -21 4 -22 -5 -3 -8 17 -10 13
-10 -19 -1 -47 -6 -45 -14 6 -4 28 -2 38 7 38 8 0 16 14 20 31 9 46 8 49 -14
49 -17 0 -20 7 -20 40 l0 40 -40 0 -40 0 0 40 0 40 -40 0 -40 0 0 40 0 40 -40
0 -40 0 0 40 0 40 -40 0 -40 0 0 40 0 40 -41 0 c-32 0 -40 -3 -35 -15 6 -17
-9 -21 -20 -4 -3 6 -1 16 5 22 6 6 11 15 11 21 0 5 -6 2 -12 -7 -15 -19 -75
-18 -70 1 1 7 -2 12 -8 12 -5 0 -10 -4 -10 -10 0 -5 -7 -10 -15 -10 -8 0 -15
5 -15 11 0 6 -9 9 -20 6 -11 -3 -18 -1 -15 3 3 5 2 10 -2 13 -5 2 -2 2 4 1 10
-3 10 1 0 16 -6 11 -18 20 -25 20 -21 0 -25 -28 -7 -46 9 -9 13 -19 10 -22 -3
-4 -10 0 -15 8 -8 13 -10 12 -10 -2 0 -22 -16 -24 -24 -3 -3 8 -11 15 -18 15
-10 0 -10 -2 0 -9 11 -7 10 -10 -3 -15 -21 -8 -25 -8 -24 2 4 24 -2 52 -11 47
-5 -3 -6 -13 -3 -22 4 -10 2 -14 -4 -10 -6 4 -13 3 -15 -2 -6 -17 -46 -22 -60
-8 -19 19 -183 23 -205 5 -15 -12 -15 -11 -4 11 11 19 11 25 0 32 -9 6 -10 9
-2 9 8 0 9 9 3 32 -7 21 -6 36 2 45 9 12 7 13 -13 10 -13 -2 -18 -2 -11 0 8 3
12 29 12 82 0 46 5 82 12 89 9 9 7 16 -7 32 -16 18 -20 19 -33 6 -13 -13 -13
-17 -1 -32 13 -16 12 -17 -7 -12 -17 4 -20 2 -17 -13 4 -14 1 -18 -9 -14 -17
7 -54 -42 -53 -70 0 -12 9 -22 25 -26 14 -4 19 -7 13 -8 -7 -1 -13 -6 -13 -12
0 -6 6 -9 14 -6 8 3 17 -1 20 -10 5 -11 2 -14 -9 -9 -11 4 -6 -8 12 -33 18
-26 31 -35 35 -28 7 11 12 2 9 -17 -1 -4 4 -15 10 -23 10 -11 8 -15 -9 -20
-12 -3 -22 -10 -22 -15 0 -5 6 -6 13 -2 6 4 9 3 4 -1 -12 -14 -50 -13 -73 2
-19 12 -22 12 -27 -2 -4 -8 -11 -15 -17 -15 -6 0 -4 8 6 18 10 9 21 17 26 17
13 0 10 18 -7 38 -8 9 -15 21 -15 27 0 5 -4 11 -8 14 -4 3 -8 -13 -9 -35 -1
-25 3 -36 10 -32 6 3 7 1 3 -5 -4 -7 -25 -12 -47 -12 l-39 0 -1 63 c0 34 -2
112 -4 172 -2 61 -1 125 2 143 5 29 9 33 29 28 12 -3 26 -2 29 4 3 5 14 10 23
10 10 0 13 -3 6 -8 -6 -4 -11 -29 -11 -55 0 -46 16 -54 20 -9 0 11 4 19 9 16
4 -2 12 5 18 16 6 12 21 20 36 20 14 0 23 4 20 8 -6 10 38 52 54 52 6 0 10 11
10 25 0 20 5 25 24 25 14 0 28 5 31 10 4 6 -7 10 -24 10 -17 0 -31 5 -31 10 0
6 -19 9 -42 9 -40 -1 -41 -2 -13 -9 27 -7 28 -8 5 -8 -30 -1 -76 16 -47 17 24
1 21 18 -5 25 -37 10 -58 7 -58 -8 0 -9 -9 -12 -27 -9 -22 4 -25 2 -13 -6 11
-8 7 -9 -19 -4 -25 4 -32 3 -27 -5 4 -7 1 -12 -6 -12 -24 0 -68 -24 -68 -37 0
-7 9 -13 19 -13 11 0 23 -4 26 -10 10 -16 -14 -12 -46 7 -24 14 -33 15 -47 5
-9 -7 -24 -15 -32 -19 -19 -8 -100 -72 -121 -95 -9 -10 -21 -18 -26 -18 -5 0
-29 -23 -54 -51 -24 -29 -49 -57 -54 -63 -15 -16 -66 -104 -86 -147 -9 -20
-21 -39 -27 -43 -5 -3 -1 11 9 31 11 21 19 43 19 50 0 8 7 26 17 41 38 62 69
108 86 127 27 29 47 71 39 80 -4 5 1 5 10 2 13 -4 15 -2 11 10 -4 11 -2 14 5
9 7 -4 12 -2 12 5 0 7 3 10 6 6 7 -7 34 15 28 24 -2 3 8 12 21 19 14 7 25 17
25 21 0 5 8 6 18 3 13 -5 14 -4 3 4 -11 8 -23 3 -48 -16 -18 -15 -33 -30 -33
-34 0 -5 -6 -8 -13 -8 -20 0 -89 -78 -81 -92 4 -6 3 -8 -4 -4 -29 18 -164
-215 -199 -344 -26 -93 -25 -338 1 -435 37 -140 126 -292 228 -393 178 -175
377 -268 631 -294 361 -39 729 123 933 407 168 236 205 544 97 814 -116 290
-385 507 -711 572 -96 19 -285 24 -382 9z m550 -70 c8 -5 11 -10 5 -10 -5 0
-17 5 -25 10 -8 5 -10 10 -5 10 6 0 17 -5 25 -10z m-560 -95 c-18 -19 -26 -22
-37 -14 -11 10 -11 14 3 23 8 7 25 13 36 13 20 2 20 1 -2 -22z m-85 -55 c3 -5
1 -10 -4 -10 -6 0 -11 5 -11 10 0 6 2 10 4 10 3 0 8 -4 11 -10z m35 6 c0 -3
-4 -8 -10 -11 -5 -3 -10 -1 -10 4 0 6 5 11 10 11 6 0 10 -2 10 -4z m21 -19
c-10 -9 -11 -8 -5 6 3 10 9 15 12 12 3 -3 0 -11 -7 -18z m59 -123 c0 -3 -6 -1
-13 5 -8 6 -17 8 -20 4 -4 -3 -7 -2 -7 4 0 18 12 22 26 8 8 -7 14 -17 14 -21z
m-33 -81 c-3 -10 -5 -2 -5 17 0 19 2 27 5 18 2 -10 2 -26 0 -35z m-64 2 c-3
-9 -8 -14 -10 -11 -3 3 -2 9 2 15 9 16 15 13 8 -4z m24 -11 c-3 -4 -2 -16 4
-28 10 -20 9 -20 -5 -2 -14 17 -13 36 1 36 4 0 3 -3 0 -6z m614 -304 l24 -19
-32 -1 c-26 0 -33 4 -33 20 0 25 11 25 41 0z m-221 -190 c0 -5 -5 -10 -11 -10
-5 0 -7 5 -4 10 3 6 8 10 11 10 2 0 4 -4 4 -10z m235 0 c3 -5 -1 -10 -10 -10
-9 0 -13 5 -10 10 3 6 8 10 10 10 2 0 7 -4 10 -10z m77 -22 c-6 -6 -8 -16 -4
-22 4 -6 6 -100 4 -209 l-3 -198 -34 3 -35 2 0 203 0 203 24 0 c13 0 26 7 30
15 3 8 11 15 18 15 9 0 9 -3 0 -12z m-261 -7 c8 12 11 11 19 -1 6 -10 10 -11
10 -2 0 6 5 12 11 12 5 0 7 -5 4 -10 -4 -6 -3 -16 2 -23 5 -7 10 -23 11 -37 2
-14 9 -46 16 -70 l13 -44 1 72 c1 51 -2 72 -11 72 -21 1 16 17 53 24 l35 6 -3
-198 c-1 -108 -4 -202 -6 -208 -3 -6 -19 -11 -37 -10 -27 1 -34 6 -43 34 -6
18 -14 30 -18 27 -4 -4 -5 1 -2 12 2 10 -2 38 -10 63 l-15 45 0 -92 -1 -92
-35 2 -35 2 0 198 c0 144 3 202 13 211 7 9 14 10 16 4 2 -6 7 -4 12 3z m-216
-11 c-3 -5 1 -10 9 -10 8 0 18 -5 22 -12 5 -7 3 -8 -7 -3 -8 5 -7 0 4 -12 9
-11 17 -34 17 -52 0 -32 -1 -32 -42 -29 -37 3 -43 6 -40 24 4 27 -23 38 -43
17 -17 -17 -15 -64 5 -87 9 -12 43 -22 87 -28 7 -1 11 -3 8 -6 -2 -3 2 -14 10
-26 9 -12 15 -43 15 -74 0 -46 -4 -58 -29 -83 -40 -40 -98 -41 -140 -1 -30 27
-34 38 -32 80 1 18 7 22 31 22 23 0 31 -5 36 -25 9 -35 30 -51 49 -35 16 13
21 75 6 66 -5 -4 -7 3 -4 14 4 17 0 20 -24 20 -33 0 -68 22 -85 53 -11 20 -19
161 -9 151 2 -2 13 4 24 13 11 10 43 21 76 24 31 3 57 7 59 8 2 0 0 -3 -3 -9z
m-324 -29 l29 -29 0 -146 c0 -136 -1 -147 -22 -171 -21 -24 -31 -26 -101 -28
l-77 -2 0 203 0 202 71 0 c65 0 73 -2 100 -29z m129 -175 l0 -204 -32 2 -33 2
-3 202 -2 202 35 0 35 0 0 -204z m335 -1 l0 -200 -33 0 -34 0 1 193 c0 142 -3
192 -12 192 -7 0 -6 4 3 10 8 6 29 9 45 8 l30 -3 0 -200z m675 81 c0 -3 -4 -8
-10 -11 -5 -3 -10 -1 -10 4 0 6 5 11 10 11 6 0 10 -2 10 -4z m-27 -206 c3 -11
1 -20 -4 -20 -5 0 -9 9 -9 20 0 11 2 20 4 20 2 0 6 -9 9 -20z m-13 -39 c0 -4
-7 -16 -16 -27 -14 -18 -15 -18 -4 4 6 12 8 28 4 34 -4 7 -3 8 4 4 7 -4 12
-11 12 -15z"/>
<path d="M750 791 c0 -131 1 -141 19 -141 36 0 42 22 39 151 l-3 124 -27 3
-28 3 0 -140z"/>
<path d="M928 1963 c7 -3 16 -2 19 1 4 3 -2 6 -13 5 -11 0 -14 -3 -6 -6z"/>
<path d="M870 1950 c-18 -12 -2 -12 25 0 13 6 15 9 5 9 -8 0 -22 -4 -30 -9z"/>
<path d="M780 1920 c-9 -6 -10 -10 -3 -10 6 0 15 5 18 10 8 12 4 12 -15 0z"/>
<path d="M1065 1920 c-4 -6 7 -10 24 -10 17 0 31 5 31 10 0 6 -11 10 -24 10
-14 0 -28 -4 -31 -10z"/>
<path d="M990 1910 c-22 -7 -21 -8 13 -9 20 -1 37 4 37 9 0 11 -14 11 -50 0z"/>
<path d="M1360 1900 c0 -5 7 -10 15 -10 8 0 15 5 15 10 0 6 -7 10 -15 10 -8 0
-15 -4 -15 -10z"/>
<path d="M1105 1881 c-17 -4 21 -7 88 -8 70 -2 117 2 117 7 0 11 -157 12 -205
1z"/>
<path d="M1428 1883 c6 -2 18 -2 25 0 6 3 1 5 -13 5 -14 0 -19 -2 -12 -5z"/>
<path d="M683 1865 c0 -8 4 -12 9 -9 5 3 6 10 3 15 -9 13 -12 11 -12 -6z"/>
<path d="M1340 1840 c0 -16 -7 -20 -33 -20 -41 0 -52 -9 -31 -24 12 -9 25 -7
60 9 47 21 61 55 24 55 -13 0 -20 -7 -20 -20z"/>
<path d="M594 1826 c-19 -14 -18 -15 3 -13 12 0 19 5 16 11 -4 5 1 7 11 3 10
-4 15 -3 11 3 -8 14 -18 13 -41 -4z"/>
<path d="M1422 1825 c-16 -8 -20 -15 -12 -20 6 -4 20 2 31 14 22 23 16 25 -19
6z"/>
<path d="M1113 1782 c0 -10 7 -19 14 -19 17 0 16 5 -1 23 -13 12 -15 12 -13
-4z"/>
<path d="M1057 1773 c-12 -11 -8 -23 7 -23 8 0 18 -9 21 -20 7 -22 20 -26 30
-10 3 6 -1 13 -9 16 -9 3 -13 11 -10 16 10 16 -25 35 -39 21z"/>
<path d="M1330 1770 l-25 -7 27 -8 c16 -4 26 -11 23 -15 -3 -4 6 -10 19 -12
19 -4 22 -1 18 14 -2 10 -10 18 -17 18 -7 0 -15 4 -17 8 -1 5 -14 5 -28 2z"/>
<path d="M1628 1773 c7 -3 16 -2 19 1 4 3 -2 6 -13 5 -11 0 -14 -3 -6 -6z"/>
<path d="M1012 1754 c-24 -17 -21 -34 6 -34 15 0 15 2 2 10 -13 8 -12 10 3 10
9 0 17 -5 17 -12 0 -6 2 -9 5 -6 3 3 2 15 -3 27 -7 20 -9 20 -30 5z"/>
<path d="M1181 1748 c8 -14 2 -21 -31 -38 l-40 -20 0 -103 c0 -56 -3 -126 -6
-154 l-7 -53 49 0 c27 0 54 4 59 8 7 5 8 54 3 152 -4 80 -6 164 -4 187 4 36 2
41 -14 40 -14 -1 -16 -5 -9 -19z m-1 -103 c0 -24 -5 -35 -15 -35 -10 0 -15 11
-15 35 0 24 5 35 15 35 10 0 15 -11 15 -35z m-46 -222 c-5 -5 -12 -12 -16 -18
-4 -6 -8 -2 -8 8 0 9 7 17 17 17 9 0 12 -3 7 -7z m53 1 c-3 -3 -12 -4 -19 -1
-8 3 -5 6 6 6 11 1 17 -2 13 -5z"/>
<path d="M1224 1745 c1 -23 2 -24 14 -8 16 22 15 33 -2 33 -9 0 -13 -10 -12
-25z"/>
<path d="M1280 1759 c0 -5 5 -7 10 -4 6 3 10 8 10 11 0 2 -4 4 -10 4 -5 0 -10
-5 -10 -11z"/>
<path d="M1441 1753 c-1 -27 17 -40 25 -19 7 19 54 22 54 4 0 -9 4 -8 10 2 5
8 10 17 10 20 0 10 -41 9 -65 0 -16 -6 -25 -5 -29 3 -2 7 -5 2 -5 -10z"/>
<path d="M1422 1730 c0 -14 2 -19 5 -12 2 6 2 18 0 25 -3 6 -5 1 -5 -13z"/>
<path d="M1550 1734 c0 -8 5 -12 11 -8 6 3 14 2 18 -4 4 -7 13 -6 25 4 11 7
16 17 12 21 -4 4 -11 1 -15 -6 -6 -9 -11 -10 -15 -2 -11 16 -36 13 -36 -5z"/>
<path d="M1297 1734 c-8 -8 3 -34 15 -34 7 0 6 5 -1 13 -6 8 -8 17 -4 20 3 4
4 7 1 7 -2 0 -7 -3 -11 -6z"/>
<path d="M1690 1720 c0 -5 5 -10 11 -10 5 0 7 5 4 10 -3 6 -8 10 -11 10 -2 0
-4 -4 -4 -10z"/>
<path d="M1765 1711 c-3 -5 -2 -12 3 -15 5 -3 9 1 9 9 0 17 -3 19 -12 6z"/>
<path d="M1390 1696 c0 -3 9 -10 20 -16 11 -6 20 -8 20 -6 0 3 -9 10 -20 16
-11 6 -20 8 -20 6z"/>
<path d="M1507 1638 c-3 -18 -4 -50 -3 -70 3 -37 -6 -49 -20 -27 -3 6 0 15 7
20 7 4 10 11 6 15 -4 4 -13 -1 -21 -11 -7 -10 -18 -15 -24 -11 -6 3 -14 1 -17
-5 -4 -6 2 -13 14 -16 22 -6 27 -18 12 -27 -5 -3 -14 1 -21 9 -7 8 -18 15 -24
15 -6 0 -5 -4 3 -9 8 -5 10 -14 6 -21 -5 -8 -4 -11 3 -6 6 3 14 -4 18 -16 l7
-23 8 23 c8 20 37 31 40 15 6 -36 4 -53 -6 -53 -7 0 -12 -10 -11 -22 1 -14 7
-22 15 -20 9 2 11 -3 7 -13 -3 -9 -2 -14 3 -10 5 3 11 0 13 -6 2 -7 10 -10 18
-7 9 3 5 12 -16 32 -19 19 -25 30 -16 33 6 3 12 11 12 19 0 8 9 14 20 14 26 0
25 11 -1 39 -12 12 -18 25 -15 28 3 4 15 -5 27 -18 l21 -24 -8 28 c-3 16 -17
40 -30 54 -20 21 -23 32 -18 64 4 22 4 39 1 39 -2 0 -7 -15 -10 -32z"/>
<path d="M1546 1643 c-9 -10 -7 -43 3 -43 5 0 13 -9 16 -20 7 -23 35 -27 35
-6 0 7 -7 19 -15 26 -8 7 -15 18 -15 26 0 15 -15 26 -24 17z"/>
<path d="M1844 1632 c0 -13 9 -19 29 -20 18 -2 26 1 22 8 -4 6 -10 9 -13 6 -3
-3 -13 1 -22 9 -14 13 -16 12 -16 -3z"/>
<path d="M1920 1490 c0 -19 3 -21 12 -12 9 9 9 15 0 24 -9 9 -12 7 -12 -12z"/>
<path d="M1300 1455 c0 -25 5 -45 10 -45 6 0 10 20 10 45 0 25 -4 45 -10 45
-5 0 -10 -20 -10 -45z"/>
<path d="M1578 1453 c-24 -6 -23 -30 1 -42 16 -9 18 -7 17 19 0 17 -1 29 -1
29 0 -1 -8 -3 -17 -6z"/>
<path d="M1390 1399 c0 -11 4 -18 10 -14 5 3 7 12 3 20 -7 21 -13 19 -13 -6z"/>
<path d="M1960 1411 c0 -5 -3 -18 -7 -28 -6 -16 -5 -16 10 -4 19 15 23 41 7
41 -5 0 -10 -4 -10 -9z"/>
<path d="M1557 1356 c-15 -7 -24 -15 -21 -19 4 -4 1 -13 -6 -22 -9 -11 -9 -15
-1 -15 6 0 16 10 21 23 7 17 9 18 9 5 1 -30 21 -20 21 10 0 21 2 24 10 12 6
-9 10 -10 10 -3 0 19 -13 21 -43 9z"/>
<path d="M935 1310 c3 -5 12 -7 20 -3 21 7 19 13 -6 13 -11 0 -18 -4 -14 -10z"/>
<path d="M1240 1311 c0 -5 9 -7 20 -4 11 3 20 7 20 9 0 2 -9 4 -20 4 -11 0
-20 -4 -20 -9z"/>
<path d="M2031 1304 c0 -11 3 -14 6 -6 3 7 2 16 -1 19 -3 4 -6 -2 -5 -13z"/>
<path d="M123 1075 c0 -33 2 -45 4 -27 2 18 2 45 0 60 -2 15 -4 0 -4 -33z"/>
<path d="M132 950 c0 -14 2 -19 5 -12 2 6 2 18 0 25 -3 6 -5 1 -5 -13z"/>
<path d="M142 890 c0 -14 2 -19 5 -12 2 6 2 18 0 25 -3 6 -5 1 -5 -13z"/>
<path d="M151 850 c0 -8 4 -22 9 -30 12 -18 12 -2 0 25 -6 13 -9 15 -9 5z"/>
<path d="M170 786 c0 -13 62 -147 67 -143 2 2 -12 37 -32 78 -19 41 -34 70
-35 65z"/>
<path d="M390 426 c0 -2 8 -10 18 -17 15 -13 16 -12 3 4 -13 16 -21 21 -21 13z"/>
</g>
</svg>
